<svg aria-hidden="true" style="position:absolute;width:0;height:0;overflow:hidden" 
xmlns="http://www.w3.org/2000/svg"><defs><symbol id="icon-antena" viewBox="0 0 32 32">
<path fill="#212121" style="fill:var(--color1, #212121)" 
d="m31 22-9-8 1-5h1a2 2 0 1 0-2-1h-5L9 0H8L7 2l1 1a15 15 0 0 0 2 18v7H4c-2 0-3 1-3 
2v1l1 1h24l1-1v-1l-3-2h-6v-3a15 15 0 0 0 10-1h1v1-1l2-1v-1zM23 6a1 1 0 1 1 1 2 1 1 0 
0 1-1-2zm-1 4-1 3-1-1 2-2zm-1-1-2 2-1-2h3zm3 20 2 1v1H2v-1l2-1h20zm-7-2v1h-6v-1h6zm-6-
1v-4c0-2 1-3 3-3s3 1 3 3v4h-6zm7-2v-2c0-2-2-4-4-4l-3 2C7 16 6 9 8 4l19 19c-3 1-6 2-9 
1zm11-1L8 2l1-1 8 8 13 13-1 1z"/><path fill="#2196f3" style="fill:var(--color2, #2196f3)" 
d="M14 20a2 2 0 1 0 0 3 2 2 0 1 0 0-3zm0 2a1 1 0 0 1 0-1 1 1 0 0 1 0 1z"/></symbol>
<symbol id="icon-clientbrand" viewBox="0 0 32 32"><path fill="#afb1b8" 
style="fill:var(--color3, #afb1b8)" d="M2 24h1v1H0v-3h2l1 1H2v1zm-1-1h1l-1-1v1zm1 
1H1v1l1-1zM5 25v-1H4v1-3h2v2H5l1 1H5zm-1-2h1v-1H4v1zM9 24H8v1H7l1-3h1l1 3H9v-1zm0 
0-1-1v1h1zM14 25h-1l-1-2v2h-1v-3h1l1 2v-2h1v3zM18 24l-1 1h-2v-3h2l1 1a2 2 0 0 1 0 1zm-1 
0v-1l-1-1v3l1-1zM10 4s8 4 8 8v7s-9-3-8-7V4zM26 18l6-2v-3c-3 1-5 3-6 5z"/>
<path fill="#afb1b8" style="fill:var(--color3, #afb1b8)" d="m25 18 7-5V6s-13 5-13 
11v11l2-1v-1c0-3 2-6 4-8z"/><path fill="#afb1b8" style="fill:var(--color3, #afb1b8)" 
d="M24 22v-2a10 10 0 0 0-2 7l2-2v-3zM24 22l1 3c3-2 7-5 7-8l-7 2-1 3z"/></symbol>
<symbol id="icon-clientcompany" viewBox="0 0 32 32"><path fill="#afb1b8" 
style="fill:var(--color3, #afb1b8)" d="M5 30v1H4l-1-1a1 1 0 0 1 0-1l1-1a2 2 0 0 1 1 
0v1a1 1 0 0 0-1 0l-1 1h1v1h1a1 1 0 0 0 0-1zM10 30H9v1H8l-1-1v-1l1-1h1v1a1 1 0 0 1 1 1zm-1 
0v-1H7v1a1 1 0 0 0 1 0h1zM13 30l1-2v3-2l-1 1-1-1v2h-1v-3h1l1 2zM17 30v1h-1v-3h2v1a1 1 0 0 
1 0 1h-1zm0 0 1-1h-1v1zM22 31h-1v-1h-1l-1 1 1-3h1l1 3zm-2-1h1l-1-1v1zM23 
28l2 2v-2h1v3h-1l-2-2v2-3zM28 30v1-1l-1-2 1 1a2 2 0 0 1 0 1v-1l1-1-1 2zM13 24c3-1 
5-3 6-5l3-7-3-2-1 8c-1 3-3 4-5 6z"/><path fill="#afb1b8" 
style="fill:var(--color3, #afb1b8)" d="m12 24 5-7c1-3 2-5 1-8l-4-3c2 2 2 6 2 9s-2 6-4 
9zM26 15l-5 7-3 2 6-3 3-4-1-2z"/><path fill="#afb1b8" style="fill:var(--color3, #afb1b8)" d="m25 15-3-2c0 2 0 4-2 6l-6 5h2l6-4 3-5zM12 4 9 2C7 2 4 4 3 6l-3 6c0 3 2 6 3 8s5 3 8 4c2-3 4-6 4-10s-1-7-3-10zM31 14c0-3-1-6-4-8s-5-3-9-3l-5 1 17 15 1-5z"/></symbol><symbol id="icon-clientfosterpeters" viewBox="0 0 32 32"><path fill="#2196f3" style="fill:var(--color2, #2196f3)" d="m5 13-2 1 2 2 2-2-2-1zM17 13l-1-3-4-2-3 2-1 3v6s9-1 9-6zM0 21l1 2 2 1 3-1 1-2v-5s-7 1-7 5zm3 0H2l1-1h1c1 0 0 0 0 0a1 1 0 0 1 0 1H3zM10 21H9v1-2h1-1v1h1zm2 0h-1v1h-1v-2c0-1 0 0 0 0h1l1 1zm-1 0v-1 1c0 1 0 0 0 0zm2 0h-1v-1a1 1 0 0 1 1 0s0 0 0 1v-1h-1v1h1v1h-1v-1h1c1 0 0 0 0 0zm1-1v2-2h-1 1zm2 1h-1 1v1h-1v-2h1-1v1h1zm0 0v1-2h1v2l-1-1zm0 0h1v-1h-1v1zm2 0v1-2h1v1h-1zm0 0h1v-1h-1v1zm2 0v1h-1v-2h1v1zm2-1h-1v2-2h-1 2zm1 1h-1 1v1h-1v-2h1-1v1h1zm1 0v1h-1v-2h1v1l1 1h-1v-1zm0 0v-1 1zm2 0h-1c-1 0 0 0 0 0v-1a1 1 0 0 1 1 0s0 0 0 1l-1-1c-1 0 0 0 0 0v1h1v1h-1v-1h1z"/></symbol><symbol id="icon-clienttagline" viewBox="0 0 32 32"><path fill="#afb1b8" style="fill:var(--color3, #afb1b8)" d="M16 16v-3h2v1h-1v-1 2h1v1h-2zM18 16v-3h2v3h-2zm1-1h1v-1h-1v-1 3-1zM21 13l1 2v-2h1v3h-1v-2 2l-1-2v2-3zM24 13h1v1l-1 1v1-3zm0 1h1v-1h-1v1zM26 13h1v3-1h-1v1-3zm1 2-1-1v1h1zM28 13l1 2v-2h1v3h-1l-1-2v2-3zM31 15l-1-2h1v1-1h1l-1 2v1-1zM17 17v1h-1v-1h1zM19 18h-2l1-1 1 1zm-1 0v-1 1zM20 18a1 1 0 0 1-1 0v-1a1 1 0 0 1 1 0h-1v1h1zM21 18h1-1v-1 1zM23 18h-1v-1h1v1zM23 17l1 1v-1 1l-1-1v1-1zM26 17h-1v1h1-1 1-1v-1h1zM5 9l9 2v8l-9-2V9zm0 0v8l10 3v-9L5 9z"/><path fill="#afb1b8" style="fill:var(--color3, #afb1b8)" d="M10 24 0 21v-8l10 2v9z"/><path fill="#afb1b8" style="fill:var(--color3, #afb1b8)" d="m5 9 8 2-3 3-9-2 4-3zm0 0-5 4 10 2 5-4L5 9zM10 23l5-3-5-1v4z"/></symbol><symbol id="icon-clienttaglinehere" viewBox="0 0 32 32"><path fill="#afb1b8" style="fill:var(--color3, #afb1b8)" d="M14 2h3V0a13 13 0 0 0-3 0h-1a18 18 0 0 0-9 3v17a19 19 0 0 1 9-2v-2a21 21 0 0 0-6 1H6V3a17 17 0 0 1 7-1h1zm3 2h2a19 19 0 0 0 9-3v17a18 18 0 0 1-13 3V3a14 14 0 0 0 2 1zm9 0h-2a21 21 0 0 1-7 1v14a14 14 0 0 0 6 0l3-2V4zM5 26H4v4h1a1 1 0 0 0 1-1H4v-3h1c1 0 0 0 0 0v1h1a1 1 0 0 0-1-1zM9 26H7v3l1 1a1 1 0 0 0 1 0v-4zm0 3H8v-3h1v3zM14 30v-4h-1l-1 2v-2h-1v4h1v-3 2h1v-2 3h1zM17 26h-1v4-2h1a3 3 0 0 0 0-2zm0 1v1h-1v-2h1v1zM20 26l-1 4v-1h1v1h1l-1-4zm0 2v-1 1zM24 28l-1-2h-1v4h1v-3l1 3h1v-4h-1v2zM28 26l-1 1v-1h-1l1 2v2-2l1-2zM4 31v1-1zM6 31v1h1l-1-1zm0 1v-1 1zM9 32H8v-1h1-1v1h1v-1 1zM11 31v1h1-1v-1zM13 31v1-1zM15 32v-1 1-1 1-1 1zM17 32v-1h1-1v1h1-1zM21 31v1h1v-1h-1zM23 32h1v-1h-1 1-1v1h1-1zM26 32v-1h-1v1h1zm0-1zM28 32v-1 1z"/></symbol><symbol id="icon-clientyaco" viewBox="0 0 32 32"><path fill="#afb1b8" style="fill:var(--color3, #afb1b8)" d="m6 0 5 5H2v21h23v-8l5 5V0H6zm19 18L11 5h14v13zm-4 5H6V8h1v14h14v1zM9 29h1l-1 2v1H8v-3l1 1v-1zm1 3v-1h1v1h1l-1-3h-1v3zm1-2v1h-1l1-1zm2 1v1h1c1 0 0 0 0 0h1l-1-1h1-1v-2h-1v2zm1 0h-1 1zm0-1h-1 1zm3 2h-1v-3h1v1h1-2v1h2l-1 1zm3-1v-1a1 1 0 0 0-1-1l-1 1v1l1 1h1v-1zm-1-1h1v1h-2v-1h1z"/></symbol><symbol id="icon-comp" viewBox="0 0 32 32"><path fill="#2196f3" style="fill:var(--color2, #2196f3)" d="M15 15h1v5h-1v-5zM19 17h1v3h-1v-3zM11 19h1v1h-1v-1zM7 18h2v2H7v-2z"/><path fill="#212121" style="fill:var(--color1, #212121)" d="M2 28h25l2-1v-2l-2-2V10l3-3a2 2 0 1 0-1-1l-2 2V7l-2-2H4L2 7v16l-2 2v2l2 1zM30 5a1 1 0 1 1 0 1 1 1 0 0 1 0-1zM3 7l1-1h21l1 1v2l-1 1V8H4v13l1 1h19l1-1v-9l1-1v12H3V7zm5 7a2 2 0 1 0 1 3l2 1 1-1 4-4 3 3h1l3-3v8H5V9h18v2l-3 4-4-3h-1l-4 4h-1v-1l-2-1zm1 1a1 1 0 1 1-2 0 1 1 0 0 1 2 0zm3 9h5v1h-5v-1zM1 25l1-1h9v1l1 1h5l1-1v-1h9l1 1v2H1v-2z"/></symbol><symbol id="icon-facebook" viewBox="0 0 32 32"><path fill="#afb1b8" style="fill:var(--color3, #afb1b8)" d="M21 5h3V0h-4c-4 0-7 3-7 8v4H8v6h5v14h6V18h4l1-6h-5V8c0-2 0-3 2-3z"/></symbol><symbol id="icon-instagram" viewBox="0 0 32 32"><path fill="#afb1b8" style="fill:var(--color3, #afb1b8)" d="m32 9-1-3c0-2-1-3-2-3l-2-2-4-1A110 110 0 0 0 6 1L3 3C2 3 1 4 1 6L0 9a110 110 0 0 0 1 17c0 2 1 3 2 3l3 2 3 1a117 117 0 0 0 18-1c2-1 3-2 4-5l1-3V9zm-3 13v3c-1 2-2 3-4 3l-2 1a113 113 0 0 1-16-1l-2-1-1-2-1-3A113 113 0 0 1 4 7l1-2 2-1 3-1a113 113 0 0 1 16 1l1 1 2 2v15z"/><path fill="#afb1b8" style="fill:var(--color3, #afb1b8)" d="M16 8a8 8 0 1 0 0 16 8 8 0 0 0 0-16zm0 13a5 5 0 1 1 0-10 5 5 0 0 1 0 10zM27 7a2 2 0 1 1-4 0 2 2 0 0 1 4 0z"/></symbol><symbol id="icon-linkedin" viewBox="0 0 32 32"><path fill="#afb1b8" style="fill:var(--color3, #afb1b8)" d="M32 32V20c0-5-1-10-8-10-3 0-5 2-6 4v-3h-7v21h7V21c0-2 0-5 4-5 3 0 3 3 3 6v10h7zM1 11h6v21H1V11zM4 0C2 0 0 2 0 4s2 4 4 4 4-2 4-4-2-4-4-4z"/></symbol><symbol id="icon-mail" viewBox="0 0 32 32"><path fill="#2196f3" style="fill:var(--color2, #2196f3)" d="M29 4H3C1 4 0 5 0 7v18c0 2 1 3 3 3h26c2 0 3-1 3-3V7c0-2-1-3-3-3zm0 2L16 18 3 6h26zm0 20H3l-1-1V8l13 12a1 1 0 0 0 2 0L30 8v17l-1 1z"/></symbol><symbol id="icon-rolex" viewBox="0 0 32 32"><path fill="#212121" style="fill:var(--color1, #212121)" d="M31 15a15 15 0 1 0-19 15v-1l4-12a2 2 0 1 0-1-3l-5-6a1 1 0 0 0-1 1l5 5 1 3-4 11a14 14 0 1 1 11 0l-1-2a1 1 0 0 0-1 0l-4 3a1 1 0 0 0 1 1l5 2a1 1 0 0 0 0-1v-2c6-2 9-8 9-14zm-15 0a1 1 0 1 1 0 1 1 1 0 0 1 0-1zm2 15 2-2 1 2h-3z"/><path fill="#2196f3" style="fill:var(--color2, #2196f3)" d="M15 3v1a1 1 0 1 0 2 0V3a1 1 0 0 0-2 0zM4 15a1 1 0 0 0 0 1h1a1 1 0 1 0 0-1H4zM28 16a1 1 0 1 0 0-1h-1a1 1 0 0 0 0 1h1z"/></symbol><symbol id="icon-smartfone" viewBox="0 0 32 32"><path fill="#757575" style="fill:var(--color4, #757575)" d="M23 0H9C7 0 6 1 6 3v26c0 2 1 3 3 3h14c2 0 3-1 3-3V3c0-2-1-3-3-3zM9 2h14l1 1v21H8V3l1-1zm14 28H9l-1-1v-3h16v3l-1 1z"/><path fill="#757575" style="fill:var(--color4, #757575)" d="M11 27v2H9v-2h2z"/></symbol><symbol id="icon-superman" viewBox="0 0 32 32"><path fill="#2196f3" style="fill:var(--color2, #2196f3)" d="M32 5V4h-2l-1-2h-1l-1 2h-2a1 1 0 0 0 0 1l1 1v3h1l1-1 2 1a1 1 0 0 0 1-1l-1-2 2-1zm-2 1h-1l1 1h-1a1 1 0 0 0-1 0h-1V6l-1-1h2V4l1 1h1v1zM26 21h-1v1h1v-1zM26 23h-1v1h1v-1zM27 22h-1v1h1v-1zM25 22h-1v1h1v-1zM22 26h-1v1h1v-1zM22 29h-1v1h1v-1zM23 27h-1v2h1v-2zM21 27h-1v2h1v-2zM16 24h-1v1h1v-1zM16 26h-1v1h1v-1zM17 25h-1v1h1v-1zM15 25h-1v1h1v-1zM6 6H5v1h1V6zM6 8H5v1h1V8zM7 7H6v1h1V7zM5 7H4v1h1V7z"/><path fill="#212121" style="fill:var(--color1, #212121)" d="m25 14-1-1-2 1-1 1-2 1h-1a7 7 0 0 0-3-14 7 7 0 0 0-6 11H6l-3 2-2 1a2 2 0 0 0 1 3h1l1-1 2-1h2l-6 5-1 2a2 2 0 0 0 0 2 2 2 0 0 0 2 0l2-1 1-2 1 1-2 2-1 1a2 2 0 0 0 0 3 2 2 0 0 0 2 0l4-4 1-1 5-6 4 1 3-2 2-1v-3zM2 18a1 1 0 0 1-1-1l2-1v1l-1 1zm4-2-2 1v-2l2-1v2zm15-7-1 3-4-2-1-1 2-5c2 0 4 3 4 5zM9 9a6 6 0 0 1 7-5l-2 4a2 2 0 1 0 0 4l2-1 4 2A6 6 0 0 1 9 9zm6 1a1 1 0 0 1-2 0 1 1 0 0 1 2 0zM2 25a1 1 0 0 1 0-1l1-1v1l-1 1zm4 4H5a1 1 0 0 1 0-1l1-1 1 1-1 1zm3-4-2 2v-1l1-1v-1l-1-2H6l-2 1H3l3-3 4 4-1 1zm7-7v1l-5 5-5-5 3-2a1 1 0 0 0 0-1H7v-2h3a7 7 0 0 0 6 2l3 1v2l-3-1zm4 1v-2l1-1 1 1-2 2zm4-3-1 1-1-2h1s0-1 0 0a1 1 0 0 1 1 1z"/><path fill="#212121" style="fill:var(--color1, #212121)" d="m14 19-3-3-2 3 2 2 3-2zm-3 1-1-1 1-1 1 1-1 1zM17 5v1l2 2h1c0-2-2-3-3-3zM20 9h-1v1h1V9z"/></symbol><symbol id="icon-twitter" viewBox="0 0 32 32"><path fill="#afb1b8" style="fill:var(--color3, #afb1b8)" d="m32 6-4 1c2-1 3-2 3-4l-4 2a7 7 0 0 0-11 6C10 11 5 8 2 4a7 7 0 0 0 2 9l-3-1c0 3 3 6 6 7a7 7 0 0 1-3 0c0 2 3 4 6 4a13 13 0 0 1-10 3A19 19 0 0 0 29 9l3-3z"/></symbol></defs></svg>